<svg width="92" height="111" viewBox="0 0 92 111" fill="none" xmlns="http://www.w3.org/2000/svg">
<rect width="92" height="92" fill="#232D3A"/>
<path d="M4.13575 107V100.832H4.92775V107H4.13575ZM4.05175 99.572V98.432H5.01175V99.572H4.05175ZM9.79066 107.168C9.11066 107.168 8.49866 107.036 7.95466 106.772C7.41866 106.508 6.99066 106.132 6.67066 105.644C6.35866 105.156 6.20266 104.576 6.20266 103.904C6.20266 103.504 6.25866 103.136 6.37066 102.8C6.49066 102.456 6.65866 102.152 6.87466 101.888C7.09066 101.624 7.34666 101.404 7.64266 101.228C7.94666 101.044 8.27866 100.904 8.63866 100.808C8.99866 100.712 9.38266 100.664 9.79066 100.664C10.2227 100.664 10.6467 100.728 11.0627 100.856C11.4867 100.984 11.8747 101.192 12.2267 101.48C12.5787 101.768 12.8547 102.148 13.0547 102.62L12.9587 102.704V98.432H13.7387V107H12.9587V105.128L13.0547 105.212C12.8547 105.676 12.5787 106.052 12.2267 106.34C11.8747 106.628 11.4867 106.84 11.0627 106.976C10.6467 107.104 10.2227 107.168 9.79066 107.168ZM9.89866 106.532C10.2427 106.532 10.5667 106.492 10.8707 106.412C11.1827 106.324 11.4667 106.204 11.7227 106.052C11.9787 105.892 12.1987 105.704 12.3827 105.488C12.5747 105.272 12.7187 105.032 12.8147 104.768C12.9187 104.496 12.9707 104.208 12.9707 103.904C12.9707 103.392 12.8347 102.94 12.5627 102.548C12.2907 102.156 11.9227 101.852 11.4587 101.636C10.9947 101.412 10.4747 101.3 9.89866 101.3C9.55466 101.3 9.23466 101.34 8.93866 101.42C8.64266 101.5 8.37866 101.62 8.14666 101.78C7.91466 101.932 7.71466 102.116 7.54666 102.332C7.38666 102.54 7.26266 102.78 7.17466 103.052C7.08666 103.316 7.04266 103.6 7.04266 103.904C7.04266 104.408 7.15866 104.86 7.39066 105.26C7.63066 105.652 7.96266 105.964 8.38666 106.196C8.81866 106.42 9.32266 106.532 9.89866 106.532ZM18.7832 107.168C18.0392 107.168 17.3832 107.036 16.8152 106.772C16.2472 106.508 15.8032 106.132 15.4832 105.644C15.1712 105.148 15.0152 104.568 15.0152 103.904C15.0152 103.504 15.0712 103.136 15.1832 102.8C15.3032 102.464 15.4752 102.164 15.6992 101.9C15.9232 101.636 16.1912 101.412 16.5032 101.228C16.8152 101.044 17.1632 100.904 17.5472 100.808C17.9392 100.712 18.3632 100.664 18.8192 100.664C19.3392 100.664 19.8232 100.732 20.2712 100.868C20.7192 101.004 21.1112 101.212 21.4472 101.492C21.7832 101.772 22.0392 102.132 22.2152 102.572C22.3912 103.004 22.4632 103.52 22.4312 104.12H15.4712V103.496H21.6032C21.5712 103.144 21.4832 102.836 21.3392 102.572C21.1952 102.3 20.9992 102.072 20.7512 101.888C20.5112 101.696 20.2272 101.552 19.8992 101.456C19.5792 101.36 19.2192 101.312 18.8192 101.312C18.4352 101.312 18.0832 101.356 17.7632 101.444C17.4512 101.524 17.1752 101.64 16.9352 101.792C16.7032 101.944 16.5032 102.128 16.3352 102.344C16.1752 102.56 16.0552 102.8 15.9752 103.064C15.8952 103.32 15.8552 103.6 15.8552 103.904C15.8552 104.4 15.9672 104.848 16.1912 105.248C16.4152 105.64 16.7472 105.952 17.1872 106.184C17.6352 106.408 18.1792 106.52 18.8192 106.52C19.5072 106.52 20.0592 106.412 20.4752 106.196C20.8912 105.972 21.2032 105.676 21.4112 105.308H22.2752C22.1392 105.668 21.9192 105.988 21.6152 106.268C21.3192 106.548 20.9352 106.768 20.4632 106.928C19.9992 107.088 19.4392 107.168 18.7832 107.168ZM25.9858 107.156C25.1618 107.156 24.5298 106.996 24.0898 106.676C23.6578 106.348 23.4418 105.9 23.4418 105.332C23.4418 105.012 23.5218 104.732 23.6818 104.492C23.8418 104.252 24.0738 104.056 24.3778 103.904C24.6818 103.752 25.0498 103.652 25.4818 103.604L28.6498 103.244C28.8978 103.212 29.0778 103.148 29.1898 103.052C29.3098 102.948 29.3698 102.808 29.3698 102.632V102.62C29.3698 102.396 29.2938 102.184 29.1418 101.984C28.9978 101.784 28.7538 101.62 28.4098 101.492C28.0738 101.364 27.6138 101.3 27.0298 101.3C26.2458 101.3 25.6658 101.424 25.2898 101.672C24.9138 101.92 24.6938 102.196 24.6298 102.5H23.8138C23.8538 102.172 23.9938 101.868 24.2338 101.588C24.4818 101.308 24.8378 101.084 25.3018 100.916C25.7658 100.748 26.3458 100.664 27.0418 100.664C27.8178 100.664 28.4298 100.756 28.8778 100.94C29.3338 101.124 29.6578 101.372 29.8498 101.684C30.0498 101.988 30.1498 102.324 30.1498 102.692V107H29.3698V104.912L29.4418 105.008C29.2658 105.472 29.0098 105.864 28.6738 106.184C28.3458 106.504 27.9538 106.748 27.4978 106.916C27.0418 107.076 26.5378 107.156 25.9858 107.156ZM26.1778 106.484C26.6098 106.484 27.0178 106.42 27.4018 106.292C27.7858 106.156 28.1258 105.976 28.4218 105.752C28.7178 105.52 28.9498 105.256 29.1178 104.96C29.2858 104.664 29.3698 104.352 29.3698 104.024V103.424L29.5258 103.64C29.3818 103.696 29.2298 103.744 29.0698 103.784C28.9098 103.816 28.6538 103.856 28.3018 103.904L25.4938 104.264C25.0938 104.32 24.7898 104.436 24.5818 104.612C24.3818 104.78 24.2818 105.008 24.2818 105.296C24.2818 105.696 24.4458 105.996 24.7738 106.196C25.1018 106.388 25.5698 106.484 26.1778 106.484ZM34.6754 107.168C34.0754 107.168 33.5674 107.112 33.1514 107C32.7354 106.88 32.3994 106.728 32.1434 106.544C31.8874 106.352 31.6954 106.14 31.5674 105.908C31.4394 105.676 31.3634 105.444 31.3394 105.212H32.1674C32.2154 105.396 32.3194 105.592 32.4794 105.8C32.6394 106 32.8914 106.172 33.2354 106.316C33.5874 106.452 34.0674 106.52 34.6754 106.52C35.2514 106.52 35.7114 106.468 36.0554 106.364C36.4074 106.252 36.6594 106.108 36.8114 105.932C36.9634 105.748 37.0394 105.552 37.0394 105.344C37.0394 105.128 36.9434 104.928 36.7514 104.744C36.5594 104.552 36.1954 104.416 35.6594 104.336L33.5354 104.012C32.8314 103.908 32.3154 103.732 31.9874 103.484C31.6674 103.236 31.5074 102.888 31.5074 102.44C31.5074 102.192 31.5674 101.96 31.6874 101.744C31.8154 101.528 32.0074 101.34 32.2634 101.18C32.5194 101.02 32.8394 100.896 33.2234 100.808C33.6074 100.712 34.0594 100.664 34.5794 100.664C35.2354 100.664 35.7834 100.74 36.2234 100.892C36.6634 101.044 37.0034 101.256 37.2434 101.528C37.4914 101.792 37.6434 102.1 37.6994 102.452H36.8714C36.8154 102.252 36.7074 102.068 36.5474 101.9C36.3954 101.724 36.1594 101.584 35.8394 101.48C35.5274 101.368 35.1034 101.312 34.5674 101.312C34.0714 101.312 33.6554 101.36 33.3194 101.456C32.9914 101.552 32.7434 101.68 32.5754 101.84C32.4154 102 32.3354 102.184 32.3354 102.392C32.3354 102.664 32.4434 102.872 32.6594 103.016C32.8834 103.16 33.2114 103.264 33.6434 103.328L35.6234 103.616C36.0874 103.68 36.4874 103.776 36.8234 103.904C37.1594 104.032 37.4194 104.208 37.6034 104.432C37.7874 104.656 37.8794 104.944 37.8794 105.296C37.8794 105.608 37.8034 105.88 37.6514 106.112C37.4994 106.344 37.2834 106.54 37.0034 106.7C36.7234 106.852 36.3874 106.968 35.9954 107.048C35.6034 107.128 35.1634 107.168 34.6754 107.168ZM42.569 101.996V101.144H48.209V101.996H42.569ZM42.569 104.084V103.232H48.209V104.084H42.569ZM42.569 106.172V105.32H48.209V106.172H42.569ZM53.1899 107V100.832H53.9819V102.848L53.9339 102.8C54.0219 102.352 54.1659 101.984 54.3659 101.696C54.5739 101.4 54.8219 101.184 55.1099 101.048C55.4059 100.904 55.7299 100.832 56.0819 100.832H56.8619V101.552H56.2019C55.7699 101.552 55.3859 101.664 55.0499 101.888C54.7219 102.112 54.4619 102.404 54.2699 102.764C54.0779 103.124 53.9819 103.512 53.9819 103.928V107H53.1899ZM61.5918 107.168C60.8478 107.168 60.1918 107.036 59.6238 106.772C59.0558 106.508 58.6118 106.132 58.2918 105.644C57.9798 105.148 57.8238 104.568 57.8238 103.904C57.8238 103.504 57.8798 103.136 57.9918 102.8C58.1118 102.464 58.2838 102.164 58.5078 101.9C58.7318 101.636 58.9998 101.412 59.3118 101.228C59.6238 101.044 59.9718 100.904 60.3558 100.808C60.7478 100.712 61.1718 100.664 61.6278 100.664C62.1478 100.664 62.6318 100.732 63.0798 100.868C63.5278 101.004 63.9198 101.212 64.2558 101.492C64.5918 101.772 64.8478 102.132 65.0238 102.572C65.1998 103.004 65.2718 103.52 65.2398 104.12H58.2798V103.496H64.4118C64.3798 103.144 64.2918 102.836 64.1478 102.572C64.0038 102.3 63.8078 102.072 63.5598 101.888C63.3198 101.696 63.0358 101.552 62.7078 101.456C62.3878 101.36 62.0278 101.312 61.6278 101.312C61.2438 101.312 60.8918 101.356 60.5718 101.444C60.2598 101.524 59.9838 101.64 59.7438 101.792C59.5118 101.944 59.3118 102.128 59.1438 102.344C58.9838 102.56 58.8638 102.8 58.7838 103.064C58.7038 103.32 58.6638 103.6 58.6638 103.904C58.6638 104.4 58.7758 104.848 58.9998 105.248C59.2238 105.64 59.5558 105.952 59.9958 106.184C60.4438 106.408 60.9878 106.52 61.6278 106.52C62.3158 106.52 62.8678 106.412 63.2838 106.196C63.6998 105.972 64.0118 105.676 64.2198 105.308H65.0838C64.9478 105.668 64.7278 105.988 64.4238 106.268C64.1278 106.548 63.7438 106.768 63.2718 106.928C62.8078 107.088 62.2478 107.168 61.5918 107.168ZM69.5504 107.168C68.9504 107.168 68.4424 107.112 68.0264 107C67.6104 106.88 67.2744 106.728 67.0184 106.544C66.7624 106.352 66.5704 106.14 66.4424 105.908C66.3144 105.676 66.2384 105.444 66.2144 105.212H67.0424C67.0904 105.396 67.1944 105.592 67.3544 105.8C67.5144 106 67.7664 106.172 68.1104 106.316C68.4624 106.452 68.9424 106.52 69.5504 106.52C70.1264 106.52 70.5864 106.468 70.9304 106.364C71.2824 106.252 71.5344 106.108 71.6864 105.932C71.8384 105.748 71.9144 105.552 71.9144 105.344C71.9144 105.128 71.8184 104.928 71.6264 104.744C71.4344 104.552 71.0704 104.416 70.5344 104.336L68.4104 104.012C67.7064 103.908 67.1904 103.732 66.8624 103.484C66.5424 103.236 66.3824 102.888 66.3824 102.44C66.3824 102.192 66.4424 101.96 66.5624 101.744C66.6904 101.528 66.8824 101.34 67.1384 101.18C67.3944 101.02 67.7144 100.896 68.0984 100.808C68.4824 100.712 68.9344 100.664 69.4544 100.664C70.1104 100.664 70.6584 100.74 71.0984 100.892C71.5384 101.044 71.8784 101.256 72.1184 101.528C72.3664 101.792 72.5184 102.1 72.5744 102.452H71.7464C71.6904 102.252 71.5824 102.068 71.4224 101.9C71.2704 101.724 71.0344 101.584 70.7144 101.48C70.4024 101.368 69.9784 101.312 69.4424 101.312C68.9464 101.312 68.5304 101.36 68.1944 101.456C67.8664 101.552 67.6184 101.68 67.4504 101.84C67.2904 102 67.2104 102.184 67.2104 102.392C67.2104 102.664 67.3184 102.872 67.5344 103.016C67.7584 103.16 68.0864 103.264 68.5184 103.328L70.4984 103.616C70.9624 103.68 71.3624 103.776 71.6984 103.904C72.0344 104.032 72.2944 104.208 72.4784 104.432C72.6624 104.656 72.7544 104.944 72.7544 105.296C72.7544 105.608 72.6784 105.88 72.5264 106.112C72.3744 106.344 72.1584 106.54 71.8784 106.7C71.5984 106.852 71.2624 106.968 70.8704 107.048C70.4784 107.128 70.0384 107.168 69.5504 107.168ZM76.9664 107.168C76.5024 107.168 76.0824 107.108 75.7064 106.988C75.3384 106.86 75.0224 106.676 74.7584 106.436C74.4944 106.196 74.2904 105.896 74.1464 105.536C74.0104 105.176 73.9424 104.756 73.9424 104.276V100.832H74.7224V104.12C74.7224 104.616 74.8064 105.044 74.9744 105.404C75.1424 105.764 75.4024 106.044 75.7544 106.244C76.1064 106.436 76.5584 106.532 77.1104 106.532C77.6704 106.532 78.1504 106.42 78.5504 106.196C78.9584 105.972 79.2744 105.672 79.4984 105.296C79.7224 104.92 79.8344 104.504 79.8344 104.048V100.832H80.6144V107H79.8344V105.128L79.9184 105.2C79.6704 105.912 79.2824 106.42 78.7544 106.724C78.2344 107.02 77.6384 107.168 76.9664 107.168ZM82.1709 107V98.432H82.9629V107H82.1709ZM87.2018 107C86.6178 107 86.1698 106.864 85.8578 106.592C85.5458 106.312 85.3898 105.916 85.3898 105.404V99.164H86.1698V105.332C86.1698 105.692 86.2738 105.956 86.4818 106.124C86.6898 106.284 86.9298 106.364 87.2018 106.364H88.3658V107H87.2018ZM83.9258 101.468V100.832H85.5458V101.468H83.9258ZM86.0138 101.468V100.832H88.3658V101.468H86.0138Z" fill="#232D3A"/>
<path d="M18.6593 51.814V55H9.11934V42.472H9.78534V51.814H18.6593ZM26.1696 42.472H26.8716L32.0196 55H31.2996L29.6076 50.86H23.4336L21.7236 55H21.0216L26.1696 42.472ZM23.7036 50.212H29.3376L26.5116 43.336L23.7036 50.212ZM42.3558 42.832C42.9198 43.12 43.3518 43.516 43.6518 44.02C43.9638 44.524 44.1198 45.088 44.1198 45.712C44.1198 46.3 43.9638 46.846 43.6518 47.35C43.3518 47.842 42.9318 48.232 42.3918 48.52C43.0278 48.736 43.5558 49.132 43.9758 49.708C44.3958 50.284 44.6058 50.92 44.6058 51.616C44.6058 52.24 44.4498 52.816 44.1378 53.344C43.8258 53.872 43.4118 54.28 42.8958 54.568C42.6318 54.712 42.3378 54.82 42.0138 54.892C41.6898 54.964 41.2578 55 40.7178 55H35.4618V42.472H40.4658C41.2578 42.472 41.8878 42.592 42.3558 42.832ZM42.0678 47.998C42.4998 47.782 42.8418 47.47 43.0938 47.062C43.3458 46.654 43.4718 46.204 43.4718 45.712C43.4718 45.16 43.3278 44.68 43.0398 44.272C42.7518 43.852 42.3858 43.546 41.9418 43.354C41.6058 43.21 41.0418 43.138 40.2498 43.138H36.1098V48.286H40.5738C41.1978 48.286 41.6958 48.19 42.0678 47.998ZM42.4998 54.064C42.9438 53.836 43.2978 53.506 43.5618 53.074C43.8258 52.63 43.9578 52.15 43.9578 51.634C43.9578 51.094 43.8198 50.608 43.5438 50.176C43.2678 49.732 42.8958 49.402 42.4278 49.186C42.0678 49.018 41.5818 48.934 40.9698 48.934H36.1098V54.352H40.7358C41.1918 54.352 41.5518 54.328 41.8158 54.28C42.0798 54.232 42.3078 54.16 42.4998 54.064ZM51.162 55L54.636 50.212C54.192 50.392 53.7 50.482 53.16 50.482C52.416 50.482 51.726 50.296 51.09 49.924C50.466 49.552 49.968 49.054 49.596 48.43C49.224 47.794 49.038 47.104 49.038 46.36C49.038 45.616 49.224 44.926 49.596 44.29C49.968 43.654 50.466 43.156 51.09 42.796C51.726 42.424 52.416 42.238 53.16 42.238C53.904 42.238 54.588 42.424 55.212 42.796C55.848 43.156 56.352 43.654 56.724 44.29C57.096 44.926 57.282 45.616 57.282 46.36C57.282 47.26 57.018 48.07 56.49 48.79V48.808L51.972 55H51.162ZM49.686 46.36C49.686 46.984 49.842 47.56 50.154 48.088C50.466 48.616 50.886 49.036 51.414 49.348C51.954 49.66 52.536 49.816 53.16 49.816C53.784 49.816 54.36 49.66 54.888 49.348C55.428 49.036 55.854 48.616 56.166 48.088C56.478 47.56 56.634 46.984 56.634 46.36C56.634 45.736 56.478 45.16 56.166 44.632C55.854 44.092 55.428 43.666 54.888 43.354C54.36 43.042 53.784 42.886 53.16 42.886C52.536 42.886 51.954 43.042 51.414 43.354C50.886 43.666 50.466 44.092 50.154 44.632C49.842 45.16 49.686 45.736 49.686 46.36ZM70.7142 51.04C70.7142 51.808 70.5222 52.516 70.1382 53.164C69.7662 53.812 69.2562 54.328 68.6082 54.712C67.9602 55.084 67.2522 55.27 66.4842 55.27C65.7162 55.27 65.0082 55.084 64.3602 54.712C63.7122 54.328 63.1962 53.812 62.8122 53.164C62.4402 52.516 62.2542 51.808 62.2542 51.04V46.45C62.2542 45.682 62.4402 44.974 62.8122 44.326C63.1962 43.678 63.7122 43.168 64.3602 42.796C65.0082 42.412 65.7162 42.22 66.4842 42.22C67.2522 42.22 67.9602 42.412 68.6082 42.796C69.2562 43.168 69.7662 43.678 70.1382 44.326C70.5222 44.974 70.7142 45.682 70.7142 46.45V51.04ZM62.9022 51.04C62.9022 51.448 62.9802 51.868 63.1362 52.3L69.4902 44.542C69.1662 44.038 68.7402 43.636 68.2122 43.336C67.6842 43.036 67.1082 42.886 66.4842 42.886C65.8362 42.886 65.2362 43.048 64.6842 43.372C64.1442 43.684 63.7122 44.116 63.3882 44.668C63.0642 45.208 62.9022 45.802 62.9022 46.45V51.04ZM70.0662 46.45C70.0662 46.042 69.9882 45.622 69.8322 45.19L63.4782 52.948C63.8022 53.464 64.2282 53.872 64.7562 54.172C65.2842 54.472 65.8602 54.622 66.4842 54.622C67.1322 54.622 67.7262 54.46 68.2662 54.136C68.8182 53.812 69.2562 53.38 69.5802 52.84C69.9042 52.288 70.0662 51.688 70.0662 51.04V46.45ZM81.4104 42.454H82.0764V51.094H84.2544V51.742H82.0764V55H81.4104V51.742H75.3624V51.076L81.4104 42.454ZM81.4104 51.094V43.606L76.1544 51.094H81.4104Z" fill="white"/>
</svg>
