<svg width="113" height="14" viewBox="0 0 113 14" fill="none" xmlns="http://www.w3.org/2000/svg">
<path d="M5.37024e-06 13.626L5.70601 1.02598H7.48801L13.212 13.626H11.322L6.22801 2.03398H6.94801L1.85401 13.626H5.37024e-06ZM2.43001 10.476L2.91601 9.03598H10.008L10.53 10.476H2.43001ZM14.8396 13.626V4.08598H16.4956V6.67798L16.3336 6.02998C16.5976 5.36998 17.0416 4.86598 17.6656 4.51798C18.2896 4.16998 19.0576 3.99598 19.9696 3.99598V5.66998C19.8976 5.65798 19.8256 5.65198 19.7536 5.65198C19.6936 5.65198 19.6336 5.65198 19.5736 5.65198C18.6496 5.65198 17.9176 5.92798 17.3776 6.47998C16.8376 7.03198 16.5676 7.82998 16.5676 8.87398V13.626H14.8396ZM22.0994 13.626V4.08598H23.8274V13.626H22.0994ZM22.9634 2.24998C22.6274 2.24998 22.3454 2.14198 22.1174 1.92598C21.9014 1.70998 21.7934 1.44598 21.7934 1.13398C21.7934 0.809976 21.9014 0.539976 22.1174 0.323976C22.3454 0.107976 22.6274 -2.39611e-05 22.9634 -2.39611e-05C23.2994 -2.39611e-05 23.5754 0.107976 23.7914 0.323976C24.0194 0.527976 24.1334 0.785976 24.1334 1.09798C24.1334 1.42198 24.0254 1.69798 23.8094 1.92598C23.5934 2.14198 23.3114 2.24998 22.9634 2.24998ZM31.3747 13.734C30.3547 13.734 29.4547 13.524 28.6747 13.104C27.9067 12.684 27.3067 12.108 26.8747 11.376C26.4547 10.644 26.2447 9.80398 26.2447 8.85598C26.2447 7.90798 26.4487 7.06798 26.8567 6.33598C27.2767 5.60398 27.8467 5.03398 28.5667 4.62598C29.2987 4.20598 30.1207 3.99598 31.0327 3.99598C31.9567 3.99598 32.7727 4.19998 33.4807 4.60798C34.1887 5.01598 34.7407 5.59198 35.1367 6.33598C35.5447 7.06798 35.7487 7.92598 35.7487 8.90998C35.7487 8.98198 35.7427 9.06598 35.7307 9.16198C35.7307 9.25798 35.7247 9.34798 35.7127 9.43198H27.5947V8.18998H34.8127L34.1107 8.62198C34.1227 8.00998 33.9967 7.46398 33.7327 6.98398C33.4687 6.50398 33.1027 6.13198 32.6347 5.86798C32.1787 5.59198 31.6447 5.45398 31.0327 5.45398C30.4327 5.45398 29.8987 5.59198 29.4307 5.86798C28.9627 6.13198 28.5967 6.50998 28.3327 7.00198C28.0687 7.48198 27.9367 8.03398 27.9367 8.65798V8.94598C27.9367 9.58198 28.0807 10.152 28.3687 10.656C28.6687 11.148 29.0827 11.532 29.6107 11.808C30.1387 12.084 30.7447 12.222 31.4287 12.222C31.9927 12.222 32.5027 12.126 32.9587 11.934C33.4267 11.742 33.8347 11.454 34.1827 11.07L35.1367 12.186C34.7047 12.69 34.1647 13.074 33.5167 13.338C32.8807 13.602 32.1667 13.734 31.3747 13.734ZM38.1482 13.626V0.269976H39.8762V13.626H38.1482ZM48.2615 13.626V1.02598H53.1755C54.2795 1.02598 55.2215 1.19998 56.0015 1.54798C56.7815 1.89598 57.3815 2.39998 57.8015 3.05998C58.2215 3.71998 58.4315 4.50598 58.4315 5.41798C58.4315 6.32998 58.2215 7.11598 57.8015 7.77598C57.3815 8.42398 56.7815 8.92198 56.0015 9.26998C55.2215 9.61798 54.2795 9.79198 53.1755 9.79198H49.2515L50.0615 8.96398V13.626H48.2615ZM56.6855 13.626L53.4815 9.05398H55.4075L58.6475 13.626H56.6855ZM50.0615 9.14398L49.2515 8.26198H53.1215C54.2735 8.26198 55.1435 8.01598 55.7315 7.52398C56.3315 7.01998 56.6315 6.31798 56.6315 5.41798C56.6315 4.51798 56.3315 3.82198 55.7315 3.32998C55.1435 2.83798 54.2735 2.59198 53.1215 2.59198H49.2515L50.0615 1.69198V9.14398ZM65.1736 13.734C64.2136 13.734 63.3616 13.524 62.6176 13.104C61.8736 12.684 61.2856 12.108 60.8536 11.376C60.4216 10.632 60.2056 9.79198 60.2056 8.85598C60.2056 7.90798 60.4216 7.06798 60.8536 6.33598C61.2856 5.60398 61.8736 5.03398 62.6176 4.62598C63.3616 4.20598 64.2136 3.99598 65.1736 3.99598C66.1216 3.99598 66.9676 4.20598 67.7116 4.62598C68.4676 5.03398 69.0556 5.60398 69.4756 6.33598C69.9076 7.05598 70.1236 7.89598 70.1236 8.85598C70.1236 9.80398 69.9076 10.644 69.4756 11.376C69.0556 12.108 68.4676 12.684 67.7116 13.104C66.9676 13.524 66.1216 13.734 65.1736 13.734ZM65.1736 12.222C65.7856 12.222 66.3316 12.084 66.8116 11.808C67.3036 11.532 67.6876 11.142 67.9636 10.638C68.2396 10.122 68.3776 9.52798 68.3776 8.85598C68.3776 8.17198 68.2396 7.58398 67.9636 7.09198C67.6876 6.58798 67.3036 6.19798 66.8116 5.92198C66.3316 5.64598 65.7856 5.50798 65.1736 5.50798C64.5616 5.50798 64.0156 5.64598 63.5356 5.92198C63.0556 6.19798 62.6716 6.58798 62.3836 7.09198C62.0956 7.58398 61.9516 8.17198 61.9516 8.85598C61.9516 9.52798 62.0956 10.122 62.3836 10.638C62.6716 11.142 63.0556 11.532 63.5356 11.808C64.0156 12.084 64.5616 12.222 65.1736 12.222ZM74.7518 13.626L70.5758 4.08598H72.3758L76.0838 12.726H75.2198L78.9998 4.08598H80.6918L76.5158 13.626H74.7518ZM86.2888 13.734C85.2688 13.734 84.3688 13.524 83.5888 13.104C82.8208 12.684 82.2208 12.108 81.7888 11.376C81.3688 10.644 81.1588 9.80398 81.1588 8.85598C81.1588 7.90798 81.3628 7.06798 81.7708 6.33598C82.1908 5.60398 82.7608 5.03398 83.4808 4.62598C84.2128 4.20598 85.0348 3.99598 85.9468 3.99598C86.8708 3.99598 87.6868 4.19998 88.3948 4.60798C89.1028 5.01598 89.6548 5.59198 90.0508 6.33598C90.4588 7.06798 90.6628 7.92598 90.6628 8.90998C90.6628 8.98198 90.6568 9.06598 90.6448 9.16198C90.6448 9.25798 90.6388 9.34798 90.6268 9.43198H82.5088V8.18998H89.7268L89.0248 8.62198C89.0368 8.00998 88.9108 7.46398 88.6468 6.98398C88.3828 6.50398 88.0168 6.13198 87.5488 5.86798C87.0928 5.59198 86.5588 5.45398 85.9468 5.45398C85.3468 5.45398 84.8128 5.59198 84.3448 5.86798C83.8768 6.13198 83.5108 6.50998 83.2468 7.00198C82.9828 7.48198 82.8508 8.03398 82.8508 8.65798V8.94598C82.8508 9.58198 82.9948 10.152 83.2828 10.656C83.5828 11.148 83.9968 11.532 84.5248 11.808C85.0528 12.084 85.6588 12.222 86.3428 12.222C86.9068 12.222 87.4168 12.126 87.8728 11.934C88.3408 11.742 88.7488 11.454 89.0968 11.07L90.0508 12.186C89.6188 12.69 89.0788 13.074 88.4308 13.338C87.7948 13.602 87.0808 13.734 86.2888 13.734ZM97.0043 13.734C96.0803 13.734 95.2523 13.53 94.5203 13.122C93.8003 12.714 93.2303 12.144 92.8103 11.412C92.3903 10.68 92.1803 9.82798 92.1803 8.85598C92.1803 7.88398 92.3903 7.03798 92.8103 6.31798C93.2303 5.58598 93.8003 5.01598 94.5203 4.60798C95.2523 4.19998 96.0803 3.99598 97.0043 3.99598C97.8083 3.99598 98.5343 4.17598 99.1823 4.53598C99.8303 4.89598 100.346 5.43598 100.73 6.15598C101.126 6.87598 101.324 7.77598 101.324 8.85598C101.324 9.93598 101.132 10.836 100.748 11.556C100.376 12.276 99.8663 12.822 99.2183 13.194C98.5703 13.554 97.8323 13.734 97.0043 13.734ZM97.1483 12.222C97.7483 12.222 98.2883 12.084 98.7683 11.808C99.2603 11.532 99.6443 11.142 99.9203 10.638C100.208 10.122 100.352 9.52798 100.352 8.85598C100.352 8.17198 100.208 7.58398 99.9203 7.09198C99.6443 6.58798 99.2603 6.19798 98.7683 5.92198C98.2883 5.64598 97.7483 5.50798 97.1483 5.50798C96.5363 5.50798 95.9903 5.64598 95.5103 5.92198C95.0303 6.19798 94.6463 6.58798 94.3583 7.09198C94.0703 7.58398 93.9263 8.17198 93.9263 8.85598C93.9263 9.52798 94.0703 10.122 94.3583 10.638C94.6463 11.142 95.0303 11.532 95.5103 11.808C95.9903 12.084 96.5363 12.222 97.1483 12.222ZM100.406 13.626V11.052L100.514 8.83798L100.334 6.62398V0.269976H102.062V13.626H100.406ZM111.254 13.626V11.61L111.164 11.232V7.79398C111.164 7.06198 110.948 6.49798 110.516 6.10198C110.096 5.69398 109.46 5.48998 108.608 5.48998C108.044 5.48998 107.492 5.58598 106.952 5.77798C106.412 5.95798 105.956 6.20398 105.584 6.51598L104.864 5.21998C105.356 4.82398 105.944 4.52398 106.628 4.31998C107.324 4.10398 108.05 3.99598 108.806 3.99598C110.114 3.99598 111.122 4.31398 111.83 4.94998C112.538 5.58598 112.892 6.55798 112.892 7.86598V13.626H111.254ZM108.122 13.734C107.414 13.734 106.79 13.614 106.25 13.374C105.722 13.134 105.314 12.804 105.026 12.384C104.738 11.952 104.594 11.466 104.594 10.926C104.594 10.41 104.714 9.94198 104.954 9.52198C105.206 9.10198 105.608 8.76598 106.16 8.51398C106.724 8.26198 107.48 8.13598 108.428 8.13598H111.452V9.37798H108.5C107.636 9.37798 107.054 9.52198 106.754 9.80998C106.454 10.098 106.304 10.446 106.304 10.854C106.304 11.322 106.49 11.7 106.862 11.988C107.234 12.264 107.75 12.402 108.41 12.402C109.058 12.402 109.622 12.258 110.102 11.97C110.594 11.682 110.948 11.262 111.164 10.71L111.506 11.898C111.278 12.462 110.876 12.912 110.3 13.248C109.724 13.572 108.998 13.734 108.122 13.734Z" fill="#363636"/>
</svg>
