<svg width="138" height="11" viewBox="0 0 138 11" fill="none" xmlns="http://www.w3.org/2000/svg">
<path d="M2.77199 10.3879L-1.46385e-05 3.07994H0.671985L3.24799 9.99594H2.95399L5.59999 3.07994H6.20199L8.83399 9.99594H8.52599L11.144 3.07994H11.788L9.01599 10.3879H8.35799L5.78199 3.75194H6.00599L3.41599 10.3879H2.77199ZM14.8032 10.3879L12.0312 3.07994H12.7032L15.2792 9.99594H14.9852L17.6312 3.07994H18.2332L20.8652 9.99594H20.5572L23.1752 3.07994H23.8192L21.0472 10.3879H20.3892L17.8132 3.75194H18.0372L15.4472 10.3879H14.8032ZM26.8345 10.3879L24.0625 3.07994H24.7345L27.3105 9.99594H27.0165L29.6625 3.07994H30.2645L32.8965 9.99594H32.5885L35.2065 3.07994H35.8505L33.0785 10.3879H32.4205L29.8445 3.75194H30.0685L27.4785 10.3879H26.8345ZM36.9162 10.4439C36.7576 10.4439 36.6176 10.3879 36.4962 10.2759C36.3842 10.1546 36.3282 10.0099 36.3282 9.84194C36.3282 9.67394 36.3842 9.53394 36.4962 9.42194C36.6176 9.30994 36.7576 9.25394 36.9162 9.25394C37.0749 9.25394 37.2102 9.30994 37.3222 9.42194C37.4436 9.53394 37.5042 9.67394 37.5042 9.84194C37.5042 10.0099 37.4436 10.1546 37.3222 10.2759C37.2102 10.3879 37.0749 10.4439 36.9162 10.4439ZM39.803 10.3879V-6.11544e-05H40.503V10.3879H39.803ZM48.0594 10.3879V8.72194L48.0314 8.46994V5.72594C48.0314 5.04461 47.8447 4.52661 47.4714 4.17194C47.1074 3.81727 46.5707 3.63994 45.8614 3.63994C45.3574 3.63994 44.886 3.72861 44.4474 3.90594C44.018 4.07394 43.6494 4.29327 43.3414 4.56394L42.9914 4.05994C43.3554 3.73327 43.794 3.48127 44.3074 3.30394C44.8207 3.11727 45.3574 3.02394 45.9174 3.02394C46.8227 3.02394 47.518 3.25261 48.0034 3.70994C48.4887 4.16727 48.7314 4.84861 48.7314 5.75394V10.3879H48.0594ZM45.4274 10.4439C44.886 10.4439 44.4147 10.3599 44.0134 10.1919C43.6214 10.0146 43.318 9.76727 43.1034 9.44994C42.898 9.13261 42.7954 8.76861 42.7954 8.35794C42.7954 7.98461 42.8794 7.64861 43.0474 7.34994C43.2247 7.04194 43.514 6.79461 43.9154 6.60794C44.3167 6.41194 44.8534 6.31394 45.5254 6.31394H48.2134V6.85994H45.5394C44.7834 6.85994 44.2514 6.99994 43.9434 7.27994C43.6447 7.55994 43.4954 7.90994 43.4954 8.32994C43.4954 8.79661 43.6727 9.16994 44.0274 9.44994C44.382 9.72994 44.8814 9.86994 45.5254 9.86994C46.1414 9.86994 46.6594 9.72994 47.0794 9.44994C47.5087 9.16994 47.826 8.76394 48.0314 8.23194L48.2274 8.70794C48.0314 9.23994 47.6954 9.66461 47.2194 9.98194C46.7527 10.2899 46.1554 10.4439 45.4274 10.4439ZM55.2835 10.4439C54.6395 10.4439 54.0561 10.2946 53.5335 9.99594C53.0201 9.69727 52.6095 9.26794 52.3015 8.70794C52.0028 8.14794 51.8535 7.48994 51.8535 6.73394C51.8535 5.95927 52.0028 5.29661 52.3015 4.74594C52.6095 4.19527 53.0201 3.77061 53.5335 3.47194C54.0561 3.17327 54.6395 3.02394 55.2835 3.02394C55.9741 3.02394 56.5901 3.18261 57.1315 3.49994C57.6821 3.80794 58.1115 4.24194 58.4195 4.80194C58.7368 5.35261 58.8955 5.99661 58.8955 6.73394C58.8955 7.46194 58.7368 8.10594 58.4195 8.66594C58.1115 9.22594 57.6821 9.66461 57.1315 9.98194C56.5901 10.2899 55.9741 10.4439 55.2835 10.4439ZM51.6155 10.3879V-6.11544e-05H52.3155V5.44594L52.1755 6.71994L52.2875 7.99394V10.3879H51.6155ZM55.2415 9.81394C55.8015 9.81394 56.3055 9.68794 56.7535 9.43594C57.2015 9.17461 57.5515 8.81061 57.8035 8.34394C58.0648 7.87727 58.1955 7.34061 58.1955 6.73394C58.1955 6.11794 58.0648 5.58127 57.8035 5.12394C57.5515 4.65727 57.2015 4.29794 56.7535 4.04594C56.3055 3.78461 55.8015 3.65394 55.2415 3.65394C54.6815 3.65394 54.1775 3.78461 53.7295 4.04594C53.2908 4.29794 52.9408 4.65727 52.6795 5.12394C52.4275 5.58127 52.3015 6.11794 52.3015 6.73394C52.3015 7.34061 52.4275 7.87727 52.6795 8.34394C52.9408 8.81061 53.2908 9.17461 53.7295 9.43594C54.1775 9.68794 54.6815 9.81394 55.2415 9.81394ZM63.166 0.517939C64.0247 0.517939 64.7434 0.713939 65.322 1.10594C65.91 1.49794 66.3534 2.06261 66.652 2.79994C66.9507 3.52794 67.1 4.40527 67.1 5.43194C67.1 6.53327 66.918 7.45727 66.554 8.20394C66.19 8.95061 65.6814 9.51527 65.028 9.89794C64.3747 10.2713 63.614 10.4579 62.746 10.4579C62.326 10.4579 61.9247 10.4206 61.542 10.3459C61.1687 10.2713 60.828 10.1406 60.52 9.95394L60.814 9.37994C61.066 9.53861 61.36 9.65527 61.696 9.72994C62.032 9.79527 62.382 9.82794 62.746 9.82794C63.8474 9.82794 64.7294 9.47327 65.392 8.76394C66.0547 8.04527 66.386 6.97194 66.386 5.54394C66.386 5.31994 66.372 5.04461 66.344 4.71794C66.316 4.39127 66.2554 4.06927 66.162 3.75194L66.414 3.82194C66.3487 4.36327 66.1667 4.82527 65.868 5.20794C65.5694 5.58127 65.1867 5.87061 64.72 6.07594C64.2627 6.28127 63.7494 6.38394 63.18 6.38394C62.5267 6.38394 61.9527 6.26727 61.458 6.03394C60.9727 5.79127 60.59 5.45061 60.31 5.01194C60.0393 4.57327 59.904 4.05994 59.904 3.47194C59.904 2.87461 60.044 2.35661 60.324 1.91794C60.6133 1.46994 61.0007 1.12461 61.486 0.881939C61.9807 0.639272 62.5407 0.517939 63.166 0.517939ZM63.194 1.13394C62.6807 1.13394 62.2327 1.23194 61.85 1.42794C61.4674 1.61461 61.164 1.88061 60.94 2.22594C60.7254 2.57127 60.618 2.98194 60.618 3.45794C60.618 4.15794 60.856 4.71794 61.332 5.13794C61.808 5.55794 62.4567 5.76794 63.278 5.76794C63.81 5.76794 64.2814 5.66527 64.692 5.45994C65.1027 5.25461 65.42 4.97461 65.644 4.61994C65.8774 4.26527 65.994 3.86861 65.994 3.42994C65.994 3.04727 65.8867 2.68327 65.672 2.33794C65.4574 1.98327 65.1447 1.69394 64.734 1.46994C64.3234 1.24594 63.81 1.13394 63.194 1.13394ZM72.4699 10.4579C71.7232 10.4579 71.0606 10.2573 70.4819 9.85594C69.9032 9.45461 69.4506 8.88527 69.1239 8.14794C68.7972 7.40127 68.6339 6.51461 68.6339 5.48794C68.6339 4.46127 68.7972 3.57927 69.1239 2.84194C69.4506 2.09527 69.9032 1.52127 70.4819 1.11994C71.0606 0.718605 71.7232 0.517939 72.4699 0.517939C73.2259 0.517939 73.8886 0.718605 74.4579 1.11994C75.0366 1.52127 75.4892 2.09527 75.8159 2.84194C76.1426 3.57927 76.3059 4.46127 76.3059 5.48794C76.3059 6.51461 76.1426 7.40127 75.8159 8.14794C75.4892 8.88527 75.0366 9.45461 74.4579 9.85594C73.8886 10.2573 73.2259 10.4579 72.4699 10.4579ZM72.4699 9.79994C73.0952 9.79994 73.6412 9.63194 74.1079 9.29594C74.5746 8.95061 74.9386 8.45594 75.1999 7.81194C75.4612 7.16794 75.5919 6.39327 75.5919 5.48794C75.5919 4.57327 75.4612 3.79861 75.1999 3.16394C74.9386 2.51994 74.5746 2.02994 74.1079 1.69394C73.6412 1.34861 73.0952 1.17594 72.4699 1.17594C71.8539 1.17594 71.3079 1.34861 70.8319 1.69394C70.3652 2.02994 70.0012 2.51994 69.7399 3.16394C69.4786 3.79861 69.3479 4.57327 69.3479 5.48794C69.3479 6.39327 69.4786 7.16794 69.7399 7.81194C70.0012 8.45594 70.3652 8.95061 70.8319 9.29594C71.3079 9.63194 71.8539 9.79994 72.4699 9.79994ZM77.6807 7.67194V7.15394L83.0007 0.587939H83.7987L78.4927 7.15394L78.1007 7.04194H86.0247V7.67194H77.6807ZM83.2667 10.3879V7.67194L83.2807 7.04194V4.64794H83.9667V10.3879H83.2667ZM87.9123 10.4439C87.7537 10.4439 87.6137 10.3879 87.4923 10.2759C87.3803 10.1546 87.3243 10.0099 87.3243 9.84194C87.3243 9.67394 87.3803 9.53394 87.4923 9.42194C87.6137 9.30994 87.7537 9.25394 87.9123 9.25394C88.071 9.25394 88.2063 9.30994 88.3183 9.42194C88.4397 9.53394 88.5003 9.67394 88.5003 9.84194C88.5003 10.0099 88.4397 10.1546 88.3183 10.2759C88.2063 10.3879 88.071 10.4439 87.9123 10.4439ZM93.4646 10.4439C92.7553 10.4439 92.1206 10.2853 91.5606 9.96794C91.01 9.65061 90.5713 9.21194 90.2446 8.65194C89.9273 8.09194 89.7686 7.45261 89.7686 6.73394C89.7686 6.00594 89.9273 5.36194 90.2446 4.80194C90.5713 4.24194 91.01 3.80794 91.5606 3.49994C92.1206 3.18261 92.7553 3.02394 93.4646 3.02394C94.0526 3.02394 94.5846 3.13594 95.0606 3.35994C95.546 3.58394 95.938 3.91994 96.2366 4.36794L95.7186 4.74594C95.4573 4.37261 95.1306 4.09727 94.7386 3.91994C94.3466 3.74261 93.922 3.65394 93.4646 3.65394C92.8953 3.65394 92.382 3.78461 91.9246 4.04594C91.4766 4.29794 91.122 4.65727 90.8606 5.12394C90.6086 5.58127 90.4826 6.11794 90.4826 6.73394C90.4826 7.34994 90.6086 7.89127 90.8606 8.35794C91.122 8.81527 91.4766 9.17461 91.9246 9.43594C92.382 9.68794 92.8953 9.81394 93.4646 9.81394C93.922 9.81394 94.3466 9.72527 94.7386 9.54794C95.1306 9.37061 95.4573 9.09527 95.7186 8.72194L96.2366 9.09994C95.938 9.54794 95.546 9.88394 95.0606 10.1079C94.5846 10.3319 94.0526 10.4439 93.4646 10.4439ZM101.065 10.4439C100.365 10.4439 99.7399 10.2853 99.1892 9.96794C98.6479 9.65061 98.2139 9.21194 97.8872 8.65194C97.5699 8.09194 97.4112 7.45261 97.4112 6.73394C97.4112 6.00594 97.5699 5.36661 97.8872 4.81594C98.2139 4.25594 98.6479 3.81727 99.1892 3.49994C99.7399 3.18261 100.365 3.02394 101.065 3.02394C101.765 3.02394 102.391 3.18261 102.941 3.49994C103.492 3.81727 103.926 4.25594 104.243 4.81594C104.561 5.36661 104.719 6.00594 104.719 6.73394C104.719 7.45261 104.561 8.09194 104.243 8.65194C103.926 9.21194 103.492 9.65061 102.941 9.96794C102.391 10.2853 101.765 10.4439 101.065 10.4439ZM101.065 9.81394C101.625 9.81394 102.129 9.68794 102.577 9.43594C103.025 9.17461 103.375 8.81061 103.627 8.34394C103.879 7.87727 104.005 7.34061 104.005 6.73394C104.005 6.11794 103.879 5.58127 103.627 5.12394C103.375 4.65727 103.025 4.29794 102.577 4.04594C102.129 3.78461 101.625 3.65394 101.065 3.65394C100.505 3.65394 100.001 3.78461 99.5532 4.04594C99.1146 4.29794 98.7646 4.65727 98.5032 5.12394C98.2512 5.58127 98.1252 6.11794 98.1252 6.73394C98.1252 7.34061 98.2512 7.87727 98.5032 8.34394C98.7646 8.81061 99.1146 9.17461 99.5532 9.43594C100.001 9.68794 100.505 9.81394 101.065 9.81394ZM115.991 3.02394C116.579 3.02394 117.088 3.14061 117.517 3.37394C117.956 3.59794 118.296 3.94327 118.539 4.40994C118.782 4.86727 118.903 5.43661 118.903 6.11794V10.3879H118.203V6.17394C118.203 5.35261 118.002 4.72727 117.601 4.29794C117.2 3.86861 116.64 3.65394 115.921 3.65394C115.37 3.65394 114.894 3.77061 114.493 4.00394C114.092 4.23727 113.784 4.56394 113.569 4.98394C113.354 5.40394 113.247 5.90794 113.247 6.49594V10.3879H112.547V6.17394C112.547 5.35261 112.346 4.72727 111.945 4.29794C111.544 3.86861 110.984 3.65394 110.265 3.65394C109.714 3.65394 109.238 3.77061 108.837 4.00394C108.436 4.23727 108.128 4.56394 107.913 4.98394C107.698 5.40394 107.591 5.90794 107.591 6.49594V10.3879H106.891V3.07994H107.563V5.09594L107.465 4.87194C107.68 4.30261 108.039 3.85461 108.543 3.52794C109.047 3.19194 109.654 3.02394 110.363 3.02394C111.091 3.02394 111.702 3.21061 112.197 3.58394C112.701 3.94794 113.018 4.49394 113.149 5.22194L112.911 5.12394C113.107 4.49861 113.476 3.99461 114.017 3.61194C114.558 3.21994 115.216 3.02394 115.991 3.02394ZM121.709 10.4439C121.551 10.4439 121.411 10.3879 121.289 10.2759C121.177 10.1546 121.121 10.0099 121.121 9.84194C121.121 9.67394 121.177 9.53394 121.289 9.42194C121.411 9.30994 121.551 9.25394 121.709 9.25394C121.868 9.25394 122.003 9.30994 122.115 9.42194C122.237 9.53394 122.297 9.67394 122.297 9.84194C122.297 10.0099 122.237 10.1546 122.115 10.2759C122.003 10.3879 121.868 10.4439 121.709 10.4439ZM128.264 10.4439C127.62 10.4439 127.037 10.2946 126.514 9.99594C126.001 9.69727 125.59 9.26794 125.282 8.70794C124.983 8.14794 124.834 7.48994 124.834 6.73394C124.834 5.95927 124.983 5.29661 125.282 4.74594C125.59 4.19527 126.001 3.77061 126.514 3.47194C127.037 3.17327 127.62 3.02394 128.264 3.02394C128.955 3.02394 129.571 3.18261 130.112 3.49994C130.663 3.80794 131.092 4.24194 131.4 4.80194C131.717 5.35261 131.876 5.99661 131.876 6.73394C131.876 7.46194 131.717 8.10594 131.4 8.66594C131.092 9.22594 130.663 9.66461 130.112 9.98194C129.571 10.2899 128.955 10.4439 128.264 10.4439ZM124.596 10.3879V-6.11544e-05H125.296V5.44594L125.156 6.71994L125.268 7.99394V10.3879H124.596ZM128.222 9.81394C128.782 9.81394 129.286 9.68794 129.734 9.43594C130.182 9.17461 130.532 8.81061 130.784 8.34394C131.045 7.87727 131.176 7.34061 131.176 6.73394C131.176 6.11794 131.045 5.58127 130.784 5.12394C130.532 4.65727 130.182 4.29794 129.734 4.04594C129.286 3.78461 128.782 3.65394 128.222 3.65394C127.662 3.65394 127.158 3.78461 126.71 4.04594C126.271 4.29794 125.921 4.65727 125.66 5.12394C125.408 5.58127 125.282 6.11794 125.282 6.73394C125.282 7.34061 125.408 7.87727 125.66 8.34394C125.921 8.81061 126.271 9.17461 126.71 9.43594C127.158 9.68794 127.662 9.81394 128.222 9.81394ZM134.043 10.3879V3.07994H134.715V5.08194L134.645 4.85794C134.851 4.26994 135.196 3.81727 135.681 3.49994C136.167 3.18261 136.773 3.02394 137.501 3.02394V3.70994C137.473 3.70994 137.445 3.70994 137.417 3.70994C137.389 3.70061 137.361 3.69594 137.333 3.69594C136.521 3.69594 135.887 3.95261 135.429 4.46594C134.972 4.96994 134.743 5.67461 134.743 6.57994V10.3879H134.043Z" fill="#363636"/>
</svg>
