<svg width="127" height="14" viewBox="0 0 127 14" fill="none" xmlns="http://www.w3.org/2000/svg">
<path d="M2.66 8.38594V2.58994H3.29V8.38594H2.66ZM4.45545e-06 5.79594V5.19394H5.95V5.79594H4.45545e-06ZM10.7707 10.4579C10.0614 10.4579 9.39404 10.3366 8.76871 10.0939C8.15271 9.85127 7.67204 9.53394 7.32671 9.14194L7.69071 8.59594C7.98937 8.94127 8.40937 9.23061 8.95071 9.46394C9.49204 9.68794 10.094 9.79994 10.7567 9.79994C11.662 9.79994 12.3434 9.59461 12.8007 9.18394C13.258 8.77327 13.4867 8.24127 13.4867 7.58794C13.4867 7.12127 13.3794 6.71994 13.1647 6.38394C12.95 6.04794 12.586 5.79127 12.0727 5.61394C11.5594 5.42727 10.8594 5.33394 9.97271 5.33394H7.98471L8.50271 0.587939H13.6967V1.23194H8.79671L9.14671 0.895939L8.68471 5.05394L8.34871 4.68994H10.1267C11.1254 4.68994 11.9187 4.81127 12.5067 5.05394C13.104 5.28727 13.5334 5.61861 13.7947 6.04794C14.0654 6.47727 14.2007 6.98127 14.2007 7.55994C14.2007 8.10127 14.0747 8.59127 13.8227 9.02994C13.5707 9.46861 13.188 9.81861 12.6747 10.0799C12.1707 10.3319 11.536 10.4579 10.7707 10.4579ZM18.509 10.4579C17.7997 10.4579 17.1323 10.3366 16.507 10.0939C15.891 9.85127 15.4103 9.53394 15.065 9.14194L15.429 8.59594C15.7277 8.94127 16.1477 9.23061 16.689 9.46394C17.2303 9.68794 17.8323 9.79994 18.495 9.79994C19.4003 9.79994 20.0817 9.59461 20.539 9.18394C20.9963 8.77327 21.225 8.24127 21.225 7.58794C21.225 7.12127 21.1177 6.71994 20.903 6.38394C20.6883 6.04794 20.3243 5.79127 19.811 5.61394C19.2977 5.42727 18.5977 5.33394 17.711 5.33394H15.723L16.241 0.587939H21.435V1.23194H16.535L16.885 0.895939L16.423 5.05394L16.087 4.68994H17.865C18.8637 4.68994 19.657 4.81127 20.245 5.05394C20.8423 5.28727 21.2717 5.61861 21.533 6.04794C21.8037 6.47727 21.939 6.98127 21.939 7.55994C21.939 8.10127 21.813 8.59127 21.561 9.02994C21.309 9.46861 20.9263 9.81861 20.413 10.0799C19.909 10.3319 19.2743 10.4579 18.509 10.4579ZM29.2673 13.1039C28.754 12.2546 28.3573 11.2746 28.0773 10.1639C27.8067 9.05327 27.6713 7.84927 27.6713 6.55194C27.6713 5.25461 27.8067 4.04594 28.0773 2.92594C28.3573 1.79661 28.754 0.821272 29.2673 -6.11544e-05H29.9393C29.3887 0.933272 28.9873 1.94127 28.7353 3.02394C28.4833 4.10661 28.3573 5.28261 28.3573 6.55194C28.3573 7.82127 28.4833 8.99727 28.7353 10.0799C28.9873 11.1626 29.3887 12.1706 29.9393 13.1039H29.2673ZM34.4094 10.4579C33.7 10.4579 33.0327 10.3366 32.4074 10.0939C31.7914 9.85127 31.3107 9.53394 30.9654 9.14194L31.3294 8.59594C31.628 8.94127 32.048 9.23061 32.5894 9.46394C33.1307 9.68794 33.7327 9.79994 34.3954 9.79994C35.3007 9.79994 35.982 9.59461 36.4394 9.18394C36.8967 8.77327 37.1254 8.24127 37.1254 7.58794C37.1254 7.12127 37.018 6.71994 36.8034 6.38394C36.5887 6.04794 36.2247 5.79127 35.7114 5.61394C35.198 5.42727 34.498 5.33394 33.6114 5.33394H31.6234L32.1414 0.587939H37.3354V1.23194H32.4354L32.7854 0.895939L32.3234 5.05394L31.9874 4.68994H33.7654C34.764 4.68994 35.5574 4.81127 36.1454 5.05394C36.7427 5.28727 37.172 5.61861 37.4334 6.04794C37.704 6.47727 37.8394 6.98127 37.8394 7.55994C37.8394 8.10127 37.7134 8.59127 37.4614 9.02994C37.2094 9.46861 36.8267 9.81861 36.3134 10.0799C35.8094 10.3319 35.1747 10.4579 34.4094 10.4579ZM40.928 10.3879V0.895939L41.25 1.23194H38.534V0.587939H41.642V10.3879H40.928ZM44.6736 13.1039H44.0156C44.5569 12.1706 44.9536 11.1626 45.2056 10.0799C45.4576 8.99727 45.5836 7.82127 45.5836 6.55194C45.5836 5.28261 45.4576 4.10661 45.2056 3.02394C44.9536 1.94127 44.5569 0.933272 44.0156 -6.11544e-05H44.6736C45.1869 0.821272 45.5836 1.79661 45.8636 2.92594C46.1436 4.04594 46.2836 5.25461 46.2836 6.55194C46.2836 7.84927 46.1436 9.05327 45.8636 10.1639C45.5836 11.2746 45.1869 12.2546 44.6736 13.1039ZM55.175 0.517939C56.0337 0.517939 56.7523 0.713939 57.331 1.10594C57.919 1.49794 58.3623 2.06261 58.661 2.79994C58.9597 3.52794 59.109 4.40527 59.109 5.43194C59.109 6.53327 58.927 7.45727 58.563 8.20394C58.199 8.95061 57.6903 9.51527 57.037 9.89794C56.3837 10.2713 55.623 10.4579 54.755 10.4579C54.335 10.4579 53.9337 10.4206 53.551 10.3459C53.1777 10.2713 52.837 10.1406 52.529 9.95394L52.823 9.37994C53.075 9.53861 53.369 9.65527 53.705 9.72994C54.041 9.79527 54.391 9.82794 54.755 9.82794C55.8563 9.82794 56.7383 9.47327 57.401 8.76394C58.0637 8.04527 58.395 6.97194 58.395 5.54394C58.395 5.31994 58.381 5.04461 58.353 4.71794C58.325 4.39127 58.2643 4.06927 58.171 3.75194L58.423 3.82194C58.3577 4.36327 58.1757 4.82527 57.877 5.20794C57.5783 5.58127 57.1957 5.87061 56.729 6.07594C56.2717 6.28127 55.7583 6.38394 55.189 6.38394C54.5357 6.38394 53.9617 6.26727 53.467 6.03394C52.9817 5.79127 52.599 5.45061 52.319 5.01194C52.0483 4.57327 51.913 4.05994 51.913 3.47194C51.913 2.87461 52.053 2.35661 52.333 1.91794C52.6223 1.46994 53.0097 1.12461 53.495 0.881939C53.9897 0.639272 54.5497 0.517939 55.175 0.517939ZM55.203 1.13394C54.6897 1.13394 54.2417 1.23194 53.859 1.42794C53.4763 1.61461 53.173 1.88061 52.949 2.22594C52.7343 2.57127 52.627 2.98194 52.627 3.45794C52.627 4.15794 52.865 4.71794 53.341 5.13794C53.817 5.55794 54.4657 5.76794 55.287 5.76794C55.819 5.76794 56.2903 5.66527 56.701 5.45994C57.1117 5.25461 57.429 4.97461 57.653 4.61994C57.8863 4.26527 58.003 3.86861 58.003 3.42994C58.003 3.04727 57.8957 2.68327 57.681 2.33794C57.4663 1.98327 57.1537 1.69394 56.743 1.46994C56.3323 1.24594 55.819 1.13394 55.203 1.13394ZM64.2829 10.4579C63.5082 10.4579 62.8455 10.3459 62.2949 10.1219C61.7442 9.89794 61.3195 9.58061 61.0209 9.16994C60.7315 8.75927 60.5869 8.26927 60.5869 7.69994C60.5869 7.14927 60.7315 6.67794 61.0209 6.28594C61.3102 5.89394 61.7302 5.59527 62.2809 5.38994C62.8315 5.17527 63.4989 5.06794 64.2829 5.06794C65.0669 5.06794 65.7342 5.17527 66.2849 5.38994C66.8449 5.59527 67.2695 5.89394 67.5589 6.28594C67.8575 6.67794 68.0069 7.14927 68.0069 7.69994C68.0069 8.26927 67.8575 8.75927 67.5589 9.16994C67.2602 9.58061 66.8309 9.89794 66.2709 10.1219C65.7202 10.3459 65.0575 10.4579 64.2829 10.4579ZM64.2829 9.84194C65.2255 9.84194 65.9629 9.65061 66.4949 9.26794C67.0269 8.88527 67.2929 8.36261 67.2929 7.69994C67.2929 7.04661 67.0269 6.52861 66.4949 6.14594C65.9629 5.76327 65.2255 5.57194 64.2829 5.57194C63.3402 5.57194 62.6075 5.76327 62.0849 6.14594C61.5622 6.52861 61.3009 7.04661 61.3009 7.69994C61.3009 8.36261 61.5622 8.88527 62.0849 9.26794C62.6075 9.65061 63.3402 9.84194 64.2829 9.84194ZM64.2829 5.47394C63.5735 5.47394 62.9669 5.38061 62.4629 5.19394C61.9682 4.99794 61.5902 4.71794 61.3289 4.35394C61.0675 3.98994 60.9369 3.55594 60.9369 3.05194C60.9369 2.52927 61.0722 2.08127 61.3429 1.70794C61.6229 1.32527 62.0149 1.03127 62.5189 0.825939C63.0229 0.620606 63.6109 0.517939 64.2829 0.517939C64.9642 0.517939 65.5569 0.620606 66.0609 0.825939C66.5649 1.03127 66.9569 1.32527 67.2369 1.70794C67.5169 2.08127 67.6569 2.52927 67.6569 3.05194C67.6569 3.55594 67.5215 3.98994 67.2509 4.35394C66.9895 4.71794 66.6069 4.99794 66.1029 5.19394C65.5989 5.38061 64.9922 5.47394 64.2829 5.47394ZM64.2829 4.98394C65.1229 4.98394 65.7762 4.81127 66.2429 4.46594C66.7095 4.12061 66.9429 3.65861 66.9429 3.07994C66.9429 2.47327 66.7002 1.99727 66.2149 1.65194C65.7389 1.30661 65.0949 1.13394 64.2829 1.13394C63.4802 1.13394 62.8409 1.30661 62.3649 1.65194C61.8889 1.99727 61.6509 2.46861 61.6509 3.06594C61.6509 3.65394 61.8795 4.12061 62.3369 4.46594C62.8035 4.81127 63.4522 4.98394 64.2829 4.98394ZM73.3246 10.4579C72.5779 10.4579 71.9152 10.2573 71.3366 9.85594C70.7579 9.45461 70.3052 8.88527 69.9786 8.14794C69.6519 7.40127 69.4886 6.51461 69.4886 5.48794C69.4886 4.46127 69.6519 3.57927 69.9786 2.84194C70.3052 2.09527 70.7579 1.52127 71.3366 1.11994C71.9152 0.718605 72.5779 0.517939 73.3246 0.517939C74.0806 0.517939 74.7432 0.718605 75.3126 1.11994C75.8912 1.52127 76.3439 2.09527 76.6706 2.84194C76.9972 3.57927 77.1606 4.46127 77.1606 5.48794C77.1606 6.51461 76.9972 7.40127 76.6706 8.14794C76.3439 8.88527 75.8912 9.45461 75.3126 9.85594C74.7432 10.2573 74.0806 10.4579 73.3246 10.4579ZM73.3246 9.79994C73.9499 9.79994 74.4959 9.63194 74.9626 9.29594C75.4292 8.95061 75.7932 8.45594 76.0546 7.81194C76.3159 7.16794 76.4466 6.39327 76.4466 5.48794C76.4466 4.57327 76.3159 3.79861 76.0546 3.16394C75.7932 2.51994 75.4292 2.02994 74.9626 1.69394C74.4959 1.34861 73.9499 1.17594 73.3246 1.17594C72.7086 1.17594 72.1626 1.34861 71.6866 1.69394C71.2199 2.02994 70.8559 2.51994 70.5946 3.16394C70.3332 3.79861 70.2026 4.57327 70.2026 5.48794C70.2026 6.39327 70.3332 7.16794 70.5946 7.81194C70.8559 8.45594 71.2199 8.95061 71.6866 9.29594C72.1626 9.63194 72.7086 9.79994 73.3246 9.79994ZM78.5074 10.3879V9.88394L82.6514 5.76794C83.0434 5.37594 83.3374 5.03527 83.5334 4.74594C83.7294 4.44727 83.8601 4.17194 83.9254 3.91994C84.0001 3.66794 84.0374 3.42061 84.0374 3.17794C84.0374 2.56194 83.8274 2.07661 83.4074 1.72194C82.9874 1.35794 82.3714 1.17594 81.5594 1.17594C80.9434 1.17594 80.4021 1.26927 79.9354 1.45594C79.4781 1.64261 79.0814 1.92727 78.7454 2.30994L78.2414 1.86194C78.6147 1.43261 79.0861 1.10127 79.6554 0.867939C80.2341 0.634606 80.8874 0.517939 81.6154 0.517939C82.2594 0.517939 82.8147 0.625272 83.2814 0.839939C83.7574 1.04527 84.1214 1.34394 84.3734 1.73594C84.6347 2.11861 84.7654 2.57594 84.7654 3.10794C84.7654 3.42527 84.7187 3.73794 84.6254 4.04594C84.5414 4.34461 84.3827 4.66194 84.1494 4.99794C83.9254 5.33394 83.5987 5.71661 83.1694 6.14594L79.2774 10.0239L79.0394 9.74394H85.2414V10.3879H78.5074ZM89.4621 10.4579C88.7434 10.4579 88.0714 10.3366 87.4461 10.0939C86.8301 9.85127 86.3494 9.53394 86.0041 9.14194L86.3681 8.59594C86.6667 8.94127 87.0867 9.23061 87.6281 9.46394C88.1787 9.68794 88.7901 9.79994 89.4621 9.79994C90.3394 9.79994 91.0067 9.60394 91.4641 9.21194C91.9307 8.81994 92.1641 8.29261 92.1641 7.62994C92.1641 6.97661 91.9307 6.45394 91.4641 6.06194C91.0067 5.66061 90.2881 5.45994 89.3081 5.45994H88.6921V4.94194L91.8141 0.951939L91.9121 1.23194H86.3681V0.587939H92.5141V1.09194L89.4061 5.08194L89.0981 4.85794H89.4061C90.5727 4.85794 91.4454 5.11461 92.0241 5.62794C92.6027 6.14127 92.8921 6.80861 92.8921 7.62994C92.8921 8.17127 92.7614 8.65661 92.5001 9.08594C92.2481 9.51527 91.8654 9.85127 91.3521 10.0939C90.8481 10.3366 90.2181 10.4579 89.4621 10.4579ZM94.4967 6.94394V6.31394H98.0947V6.94394H94.4967ZM101.262 10.3879V0.895939L101.584 1.23194H98.868V0.587939H101.976V10.3879H101.262ZM104.252 10.3879V9.88394L108.396 5.76794C108.788 5.37594 109.082 5.03527 109.278 4.74594C109.474 4.44727 109.604 4.17194 109.67 3.91994C109.744 3.66794 109.782 3.42061 109.782 3.17794C109.782 2.56194 109.572 2.07661 109.152 1.72194C108.732 1.35794 108.116 1.17594 107.304 1.17594C106.688 1.17594 106.146 1.26927 105.68 1.45594C105.222 1.64261 104.826 1.92727 104.49 2.30994L103.986 1.86194C104.359 1.43261 104.83 1.10127 105.4 0.867939C105.978 0.634606 106.632 0.517939 107.36 0.517939C108.004 0.517939 108.559 0.625272 109.026 0.839939C109.502 1.04527 109.866 1.34394 110.118 1.73594C110.379 2.11861 110.51 2.57594 110.51 3.10794C110.51 3.42527 110.463 3.73794 110.37 4.04594C110.286 4.34461 110.127 4.66194 109.894 4.99794C109.67 5.33394 109.343 5.71661 108.914 6.14594L105.022 10.0239L104.784 9.74394H110.986V10.3879H104.252ZM112.14 10.3879V9.88394L116.284 5.76794C116.676 5.37594 116.97 5.03527 117.166 4.74594C117.362 4.44727 117.493 4.17194 117.558 3.91994C117.633 3.66794 117.67 3.42061 117.67 3.17794C117.67 2.56194 117.46 2.07661 117.04 1.72194C116.62 1.35794 116.004 1.17594 115.192 1.17594C114.576 1.17594 114.035 1.26927 113.568 1.45594C113.111 1.64261 112.714 1.92727 112.378 2.30994L111.874 1.86194C112.248 1.43261 112.719 1.10127 113.288 0.867939C113.867 0.634606 114.52 0.517939 115.248 0.517939C115.892 0.517939 116.448 0.625272 116.914 0.839939C117.39 1.04527 117.754 1.34394 118.006 1.73594C118.268 2.11861 118.398 2.57594 118.398 3.10794C118.398 3.42527 118.352 3.73794 118.258 4.04594C118.174 4.34461 118.016 4.66194 117.782 4.99794C117.558 5.33394 117.232 5.71661 116.802 6.14594L112.91 10.0239L112.672 9.74394H118.874V10.3879H112.14ZM123.263 10.4579C122.554 10.4579 121.886 10.3366 121.261 10.0939C120.645 9.85127 120.164 9.53394 119.819 9.14194L120.183 8.59594C120.482 8.94127 120.902 9.23061 121.443 9.46394C121.984 9.68794 122.586 9.79994 123.249 9.79994C124.154 9.79994 124.836 9.59461 125.293 9.18394C125.75 8.77327 125.979 8.24127 125.979 7.58794C125.979 7.12127 125.872 6.71994 125.657 6.38394C125.442 6.04794 125.078 5.79127 124.565 5.61394C124.052 5.42727 123.352 5.33394 122.465 5.33394H120.477L120.995 0.587939H126.189V1.23194H121.289L121.639 0.895939L121.177 5.05394L120.841 4.68994H122.619C123.618 4.68994 124.411 4.81127 124.999 5.05394C125.596 5.28727 126.026 5.61861 126.287 6.04794C126.558 6.47727 126.693 6.98127 126.693 7.55994C126.693 8.10127 126.567 8.59127 126.315 9.02994C126.063 9.46861 125.68 9.81861 125.167 10.0799C124.663 10.3319 124.028 10.4579 123.263 10.4579Z" fill="#363636"/>
</svg>
