<svg xmlns="http://www.w3.org/2000/svg" width="98.049" height="34.672" viewBox="0 0 98.049 34.672">
  <path id="Logo" d="M14261.66,1701.547l-6.292,22.994a.582.582,0,0,1-1.143-.123l-1.125-21.7a4.842,4.842,0,0,0-4.836-4.593h-4.8a4.843,4.843,0,0,0-4.671,3.565l-6.527,23.852a.581.581,0,0,1-1.142-.124l-1.094-21.084a6.2,6.2,0,0,0-6.187-5.876h-2.111l1.7,29.772a4.843,4.843,0,0,0,4.835,4.567h6.655a4.845,4.845,0,0,0,4.665-3.542l5.861-21.02,1.141,19.995a4.843,4.843,0,0,0,4.835,4.567h6.33a4.843,4.843,0,0,0,4.665-3.542l8.59-30.8h-5.292A4.2,4.2,0,0,0,14261.66,1701.547Zm6.363,30.909h5.8a4.2,4.2,0,0,0,4.048-3.073l8.629-30.93h-5.964a4.2,4.2,0,0,0-4.055,3.094Zm36.394,0c4.145,0,7.749-1.5,9.07-6.068s.661-7.69-3.3-10.333-10.573-6.849-11.774-7.57-.541-2.643,1.262-2.643h14.888a4.2,4.2,0,0,0,4.056-3.1l1.163-4.287h-19.206c-3.184,0-8.29.721-10.093,5.047s-1.982,8.471,2.944,11.595,10.693,6.909,11.534,7.449a1.423,1.423,0,0,1-1.021,2.523h-15.846a4.2,4.2,0,0,0-4.051,3.083l-1.189,4.306Z" transform="translate(-14221.729 -1698.121)" fill="#fff"/>
</svg>
