<svg width="51" height="9" viewBox="0 0 51 9" fill="none" xmlns="http://www.w3.org/2000/svg">
<path d="M6.36 6.39602V8.52002H3.27826e-06V0.168019H0.444003V6.39602H6.36ZM11.3668 0.168019H11.8348L15.2668 8.52002H14.7868L13.6588 5.76002H9.54282L8.40282 8.52002H7.93482L11.3668 0.168019ZM9.72282 5.32802H13.4788L11.5948 0.74402L9.72282 5.32802ZM22.1576 0.408019C22.5336 0.600019 22.8216 0.864019 23.0216 1.20002C23.2296 1.53602 23.3336 1.91202 23.3336 2.32802C23.3336 2.72002 23.2296 3.08402 23.0216 3.42002C22.8216 3.74802 22.5416 4.00802 22.1816 4.20002C22.6056 4.34402 22.9576 4.60802 23.2376 4.99202C23.5176 5.37602 23.6576 5.80002 23.6576 6.26402C23.6576 6.68002 23.5536 7.06402 23.3456 7.41602C23.1376 7.76802 22.8616 8.04002 22.5176 8.23202C22.3416 8.32802 22.1456 8.40002 21.9296 8.44802C21.7136 8.49602 21.4256 8.52002 21.0656 8.52002H17.5616V0.168019H20.8976C21.4256 0.168019 21.8456 0.248019 22.1576 0.408019ZM21.9656 3.85202C22.2536 3.70802 22.4816 3.50002 22.6496 3.22802C22.8176 2.95602 22.9016 2.65602 22.9016 2.32802C22.9016 1.96002 22.8056 1.64002 22.6136 1.36802C22.4216 1.08802 22.1776 0.884019 21.8816 0.756019C21.6576 0.660019 21.2816 0.612019 20.7536 0.612019H17.9936V4.04402H20.9696C21.3856 4.04402 21.7176 3.98002 21.9656 3.85202ZM22.2536 7.89602C22.5496 7.74402 22.7856 7.52402 22.9616 7.23602C23.1376 6.94002 23.2256 6.62002 23.2256 6.27602C23.2256 5.91602 23.1336 5.59202 22.9496 5.30402C22.7656 5.00802 22.5176 4.78802 22.2056 4.64402C21.9656 4.53202 21.6416 4.47602 21.2336 4.47602H17.9936V8.08802H21.0776C21.3816 8.08802 21.6216 8.07202 21.7976 8.04002C21.9736 8.00802 22.1256 7.96002 22.2536 7.89602ZM28.0284 8.52002L30.3444 5.32802C30.0484 5.44802 29.7204 5.50802 29.3604 5.50802C28.8644 5.50802 28.4044 5.38402 27.9804 5.13602C27.5644 4.88802 27.2324 4.55602 26.9844 4.14002C26.7364 3.71602 26.6124 3.25602 26.6124 2.76002C26.6124 2.26402 26.7364 1.80402 26.9844 1.38002C27.2324 0.956019 27.5644 0.624019 27.9804 0.384019C28.4044 0.136019 28.8644 0.0120189 29.3604 0.0120189C29.8564 0.0120189 30.3124 0.136019 30.7284 0.384019C31.1524 0.624019 31.4884 0.956019 31.7364 1.38002C31.9844 1.80402 32.1084 2.26402 32.1084 2.76002C32.1084 3.36002 31.9324 3.90002 31.5804 4.38002V4.39202L28.5684 8.52002H28.0284ZM27.0444 2.76002C27.0444 3.17602 27.1484 3.56002 27.3564 3.91202C27.5644 4.26402 27.8444 4.54402 28.1964 4.75202C28.5564 4.96002 28.9444 5.06402 29.3604 5.06402C29.7764 5.06402 30.1604 4.96002 30.5124 4.75202C30.8724 4.54402 31.1564 4.26402 31.3644 3.91202C31.5724 3.56002 31.6764 3.17602 31.6764 2.76002C31.6764 2.34402 31.5724 1.96002 31.3644 1.60802C31.1564 1.24802 30.8724 0.964019 30.5124 0.756019C30.1604 0.548019 29.7764 0.444019 29.3604 0.444019C28.9444 0.444019 28.5564 0.548019 28.1964 0.756019C27.8444 0.964019 27.5644 1.24802 27.3564 1.60802C27.1484 1.96002 27.0444 2.34402 27.0444 2.76002ZM41.0633 5.88002C41.0633 6.39202 40.9353 6.86402 40.6793 7.29602C40.4313 7.72802 40.0913 8.07202 39.6593 8.32802C39.2273 8.57602 38.7553 8.70002 38.2433 8.70002C37.7313 8.70002 37.2593 8.57602 36.8273 8.32802C36.3953 8.07202 36.0513 7.72802 35.7953 7.29602C35.5473 6.86402 35.4233 6.39202 35.4233 5.88002V2.82002C35.4233 2.30802 35.5473 1.83602 35.7953 1.40402C36.0513 0.972019 36.3953 0.632019 36.8273 0.384019C37.2593 0.128019 37.7313 1.90735e-05 38.2433 1.90735e-05C38.7553 1.90735e-05 39.2273 0.128019 39.6593 0.384019C40.0913 0.632019 40.4313 0.972019 40.6793 1.40402C40.9353 1.83602 41.0633 2.30802 41.0633 2.82002V5.88002ZM35.8553 5.88002C35.8553 6.15202 35.9073 6.43202 36.0113 6.72002L40.2473 1.54802C40.0313 1.21202 39.7473 0.944019 39.3953 0.74402C39.0433 0.544019 38.6593 0.444019 38.2433 0.444019C37.8113 0.444019 37.4113 0.552019 37.0433 0.768019C36.6833 0.976019 36.3953 1.26402 36.1793 1.63202C35.9633 1.99202 35.8553 2.38802 35.8553 2.82002V5.88002ZM40.6313 2.82002C40.6313 2.54802 40.5793 2.26802 40.4753 1.98002L36.2393 7.15202C36.4553 7.49602 36.7393 7.76802 37.0913 7.96802C37.4433 8.16802 37.8273 8.26802 38.2433 8.26802C38.6753 8.26802 39.0713 8.16002 39.4313 7.94402C39.7993 7.72802 40.0913 7.44002 40.3073 7.08002C40.5233 6.71202 40.6313 6.31202 40.6313 5.88002V2.82002ZM48.1941 0.156019H48.6381V5.91602H50.0901V6.34802H48.6381V8.52002H48.1941V6.34802H44.1621V5.90402L48.1941 0.156019ZM48.1941 5.91602V0.924019L44.6901 5.91602H48.1941Z" fill="black"/>
</svg>
